<?xml version="1.0" encoding="UTF-8" standalone="no"?>
<!DOCTYPE svg PUBLIC "-//W3C//DTD SVG 1.1//EN" "http://www.w3.org/Graphics/SVG/1.1/DTD/svg11.dtd">
<svg width="100%" height="100%" viewBox="0 0 24 24" version="1.1" xmlns="http://www.w3.org/2000/svg" xmlns:xlink="http://www.w3.org/1999/xlink" xml:space="preserve" xmlns:serif="http://www.serif.com/" style="fill-rule:evenodd;clip-rule:evenodd;stroke-linejoin:round;stroke-miterlimit:2;">
    <path d="M12,0.5C18.325,0.5 23.5,5.675 23.5,12C23.5,18.325 18.325,23.5 12,23.5C5.675,23.5 0.5,18.325 0.5,12C0.5,5.675 5.675,0.5 12,0.5ZM12,2.8C6.917,2.8 2.8,6.917 2.8,12C2.8,17.083 6.917,21.2 12,21.2C17.083,21.2 21.2,17.083 21.2,12C21.2,6.917 17.083,2.8 12,2.8Z" style="fill:rgb(33,150,243);fill-opacity:0.3;"/>
    <g transform="matrix(1.14286,0,0,1.14286,-1.71427,-1.71427)">
        <path d="M12,5C15.87,5 19,8.13 19,12C19,15.87 15.87,19 12,19C8.13,19 5,15.87 5,12C5,8.13 8.13,5 12,5Z" style="fill:rgb(33,150,243);fill-opacity:0.8;"/>
    </g>
</svg>
