<?xml version="1.0" encoding="UTF-8" standalone="no"?>
<!DOCTYPE svg PUBLIC "-//W3C//DTD SVG 1.1//EN" "http://www.w3.org/Graphics/SVG/1.1/DTD/svg11.dtd">
<svg width="100%" height="100%" viewBox="0 0 24 24" version="1.1" xmlns="http://www.w3.org/2000/svg" xmlns:xlink="http://www.w3.org/1999/xlink" xml:space="preserve" xmlns:serif="http://www.serif.com/" style="fill-rule:evenodd;clip-rule:evenodd;stroke-linejoin:round;stroke-miterlimit:2;">
    <g transform="matrix(1.13581,0,0,1.13581,-1.6694,-2.79962)">
        <path d="M21.82,15.42L19.32,19.75C18.83,20.61 17.92,21.06 17,21L15,21L15,23L12.5,18.5L15,14L15,16L17.82,16L15.6,12.15L19.93,9.65L21.73,12.77C22.25,13.54 22.32,14.57 21.82,15.42M9.21,3.06L14.21,3.06C15.19,3.06 16.04,3.63 16.45,4.45L17.45,6.19L19.18,5.19L16.54,9.6L11.39,9.69L13.12,8.69L11.71,6.24L9.5,10.09L5.16,7.59L6.96,4.47C7.37,3.64 8.22,3.06 9.21,3.06M5.05,19.76L2.55,15.43C2.06,14.58 2.13,13.56 2.64,12.79L3.64,11.06L1.91,10.06L7.05,10.14L9.7,14.56L7.97,13.56L6.56,16L11,16L11,21L7.4,21C6.47,21.07 5.55,20.61 5.05,19.76Z" style="fill:rgb(76,175,80);fill-rule:nonzero;"/>
    </g>
</svg>
